<?xml version="1.0" encoding="utf-8"?>
<!-- Generator: Adobe Illustrator 23.1.0, SVG Export Plug-In . SVG Version: 6.00 Build 0)  -->
<svg version="1.1" xmlns="http://www.w3.org/2000/svg" xmlns:xlink="http://www.w3.org/1999/xlink" x="0px" y="0px"
	 viewBox="0 0 359 387" style="enable-background:new 0 0 359 387;" xml:space="preserve">
<style type="text/css">
	.st0{fill:none;stroke:#000000;stroke-width:2;stroke-miterlimit:10;}
	.st1{stroke:#000000;stroke-miterlimit:10;}
</style>
<g id="EYE_SHAPE">
	<g>
		<path class="st0" d="M44.8,185.7c155.2,155.2,276.9,0,276.9,0C166.4,30.5,44.8,185.7,44.8,185.7z"/>
		<path class="st1" d="M295.5,211.5c29.2-27,0.5-48.9,0.5-48.9l25.6,23.1L295.5,211.5z"/>
		<path class="st1" d="M72.9,210.9l-27.2-25L67,163.6C61.6,169.8,49,188.8,72.9,210.9z"/>
		<path class="st1" d="M69,161.6l-1.9,2C68.1,162.4,68.8,161.7,69,161.6z"/>
	</g>
</g>
<g id="IRIS">
	<path d="M194.8,185.7c0-16.1,10.2-29.8,24.5-35c-8.5-7.9-19.9-12.8-32.5-12.8c-26.4,0-47.8,21.4-47.8,47.8
		c0,26.4,21.4,47.8,47.8,47.8c12.6,0,24-4.9,32.5-12.8C205,215.5,194.8,201.8,194.8,185.7z"/>
	<path d="M208.3,37.2c0,3.4-0.6,6.7-1.7,9.7c-2.6,9.9-9.6,27.6-26.4,59c0,0-30.3-52.8-29.8-67.2c0-0.1,0-1.2,0-1.6
		c0.3-16,13-29,29-29C195.3,8.2,208.3,21.2,208.3,37.2z"/>
	<path d="M94.3,70.6c1.5,2.1,2.5,4.3,3.1,6.7c2.6,7.2,6,21,9.1,47.4c0,0-41.1-19.3-47-28.4c0-0.1-0.5-0.7-0.7-1
		c-6.7-9.9-4.5-23.3,5.3-30.1C74,58.4,87.5,60.8,94.3,70.6z"/>
	<path d="M268.3,70.6c-1.5,2.1-2.5,4.3-3.1,6.7c-2.6,7.2-6,21-9.1,47.4c0,0,41.1-19.3,47-28.4c0-0.1,0.5-0.7,0.7-1
		c6.7-9.9,4.5-23.3-5.3-30.1C288.6,58.4,275.1,60.8,268.3,70.6z"/>
	<path d="M148.4,345.2c0-4,0.7-7.7,1.9-11.3c3.1-11.5,11.1-32,30.6-68.3c0,0,35.1,61.1,34.5,77.8c0,0.1,0,1.4,0,1.8
		c-0.3,18.5-15,33.6-33.5,33.6C163.4,378.8,148.4,363.7,148.4,345.2z"/>
</g>
</svg>
